<?xml version="1.0" encoding="UTF-8"?>
      <mxfile host="codeviz.app" modified="2025-07-02T21:43:10.083Z" agent="CodeViz Exporter" version="14.6.5" type="device">
        <diagram id="codeviz-diagram" name="System Diagram">
          <mxGraphModel dx="1000" dy="1000" grid="1" gridSize="10" guides="1" tooltips="1" connect="1" arrows="1" fold="1" page="1" pageScale="1" pageWidth="1169" pageHeight="827" math="0" shadow="0">
            <root>
              <mxCell id="0"/>
              <mxCell id="1" parent="0"/>
              <mxCell id="session-wrapper-9b611a5bad72517c60b89ebca0c2394f" value="" style="html=1;whiteSpace=wrap;container=1;fillColor=#dae8fc;strokeColor=#6c8ebf;dashed=1;fillOpacity=20;strokeWidth=2;containerType=none;recursiveResize=0;movable=1;resizable=1;autosize=0;dropTarget=0" vertex="1" parent="1">
                <mxGeometry x="22" y="282" width="240" height="700" as="geometry"/>
              </mxCell>
              <mxCell id="session-wrapper-9b611a5bad72517c60b89ebca0c2394f_label" value="" style="edgeLabel;html=1;align=center;verticalAlign=middle;resizable=0;labelBackgroundColor=white;spacing=5" vertex="1" parent="1">
                <mxGeometry x="30" y="290" width="164" height="24" as="geometry"/>
              </mxCell>
              <mxCell id="backendAPI_node_9b611a5bad72517c60b89ebca0c2394f" value="Backend API&lt;br&gt;(Endpoint)" style="rounded=1;whiteSpace=wrap;html=1;fillColor=#f5f5f5" vertex="1" parent="session-wrapper-9b611a5bad72517c60b89ebca0c2394f">
                    <mxGeometry x="40" y="600" width="120" height="60" as="geometry"/>
                  </mxCell>
<mxCell id="backendService_node_9b611a5bad72517c60b89ebca0c2394f" value="Backend Service&lt;br&gt;(adminService.js)" style="rounded=1;whiteSpace=wrap;html=1;fillColor=#f5f5f5" vertex="1" parent="session-wrapper-9b611a5bad72517c60b89ebca0c2394f">
                    <mxGeometry x="40" y="440" width="120" height="60" as="geometry"/>
                  </mxCell>
<mxCell id="frontendComponent_node_9b611a5bad72517c60b89ebca0c2394f" value="Frontend Component&lt;br&gt;(AdminCrearUsuarioFrm.vue)" style="rounded=1;whiteSpace=wrap;html=1;fillColor=#f5f5f5" vertex="1" parent="session-wrapper-9b611a5bad72517c60b89ebca0c2394f">
                    <mxGeometry x="40" y="280" width="120" height="60" as="geometry"/>
                  </mxCell>
<mxCell id="vsCodeHost_node_9b611a5bad72517c60b89ebca0c2394f" value="VS Code Host&lt;br&gt;(Context)" style="rounded=1;whiteSpace=wrap;html=1;fillColor=#f5f5f5" vertex="1" parent="session-wrapper-9b611a5bad72517c60b89ebca0c2394f">
                    <mxGeometry x="40" y="120" width="120" height="60" as="geometry"/>
                  </mxCell>
<mxCell id="search-result-9b611a5bad72517c60b89ebca0c2394f" value="" style="rounded=1;whiteSpace=wrap;html=1;fillColor=#f5f5f5" vertex="1" parent="1">
                    <mxGeometry x="152" y="12" width="120" height="60" as="geometry"/>
                  </mxCell>
<mxCell id="terminal-9b611a5bad72517c60b89ebca0c2394f" value="Terminal" style="rounded=1;whiteSpace=wrap;html=1;fillColor=#f5f5f5" vertex="1" parent="1">
                    <mxGeometry x="252" y="272" width="120" height="60" as="geometry"/>
                  </mxCell>
              <mxCell id="edge-L_vsCodeHost_node_frontendComponent_node_0_9b611a5bad72517c60b89ebca0c2394f" style="edgeStyle=orthogonalEdgeStyle;rounded=1;orthogonalLoop=1;jettySize=auto;html=1;strokeColor=#808080;strokeWidth=2;jumpStyle=arc;jumpSize=10;spacing=15;labelBackgroundColor=white;labelBorderColor=none" edge="1" parent="1" source="vsCodeHost_node_9b611a5bad72517c60b89ebca0c2394f" target="frontendComponent_node_9b611a5bad72517c60b89ebca0c2394f">
                  <mxGeometry relative="1" as="geometry"/>
                </mxCell>
                <mxCell id="edge-L_vsCodeHost_node_frontendComponent_node_0_9b611a5bad72517c60b89ebca0c2394f_label" value="User Interaction" style="edgeLabel;html=1;align=center;verticalAlign=middle;resizable=0;points=[];" vertex="1" connectable="0" parent="edge-L_vsCodeHost_node_frontendComponent_node_0_9b611a5bad72517c60b89ebca0c2394f">
                  <mxGeometry x="-0.2" y="10" relative="1" as="geometry">
                    <mxPoint as="offset"/>
                  </mxGeometry>
                </mxCell>
<mxCell id="edge-L_frontendComponent_node_backendService_node_1_9b611a5bad72517c60b89ebca0c2394f" style="edgeStyle=orthogonalEdgeStyle;rounded=1;orthogonalLoop=1;jettySize=auto;html=1;strokeColor=#808080;strokeWidth=2;jumpStyle=arc;jumpSize=10;spacing=15;labelBackgroundColor=white;labelBorderColor=none" edge="1" parent="1" source="frontendComponent_node_9b611a5bad72517c60b89ebca0c2394f" target="backendService_node_9b611a5bad72517c60b89ebca0c2394f">
                  <mxGeometry relative="1" as="geometry"/>
                </mxCell>
                <mxCell id="edge-L_frontendComponent_node_backendService_node_1_9b611a5bad72517c60b89ebca0c2394f_label" value="Calls Service" style="edgeLabel;html=1;align=center;verticalAlign=middle;resizable=0;points=[];" vertex="1" connectable="0" parent="edge-L_frontendComponent_node_backendService_node_1_9b611a5bad72517c60b89ebca0c2394f">
                  <mxGeometry x="-0.2" y="10" relative="1" as="geometry">
                    <mxPoint as="offset"/>
                  </mxGeometry>
                </mxCell>
<mxCell id="edge-L_backendService_node_backendAPI_node_2_9b611a5bad72517c60b89ebca0c2394f" style="edgeStyle=orthogonalEdgeStyle;rounded=1;orthogonalLoop=1;jettySize=auto;html=1;strokeColor=#808080;strokeWidth=2;jumpStyle=arc;jumpSize=10;spacing=15;labelBackgroundColor=white;labelBorderColor=none" edge="1" parent="1" source="backendService_node_9b611a5bad72517c60b89ebca0c2394f" target="backendAPI_node_9b611a5bad72517c60b89ebca0c2394f">
                  <mxGeometry relative="1" as="geometry"/>
                </mxCell>
                <mxCell id="edge-L_backendService_node_backendAPI_node_2_9b611a5bad72517c60b89ebca0c2394f_label" value="HTTP Request" style="edgeLabel;html=1;align=center;verticalAlign=middle;resizable=0;points=[];" vertex="1" connectable="0" parent="edge-L_backendService_node_backendAPI_node_2_9b611a5bad72517c60b89ebca0c2394f">
                  <mxGeometry x="-0.2" y="10" relative="1" as="geometry">
                    <mxPoint as="offset"/>
                  </mxGeometry>
                </mxCell>
<mxCell id="edge-search-result-9b611a5bad72517c60b89ebca0c2394f-to-session-wrapper-9b611a5bad72517c60b89ebca0c2394f" style="edgeStyle=orthogonalEdgeStyle;rounded=1;orthogonalLoop=1;jettySize=auto;html=1;strokeColor=#808080;strokeWidth=2;jumpStyle=arc;jumpSize=10;spacing=15;labelBackgroundColor=white;labelBorderColor=none" edge="1" parent="1" source="search-result-9b611a5bad72517c60b89ebca0c2394f" target="session-wrapper-9b611a5bad72517c60b89ebca0c2394f">
                  <mxGeometry relative="1" as="geometry"/>
                </mxCell>
                <mxCell id="edge-search-result-9b611a5bad72517c60b89ebca0c2394f-to-session-wrapper-9b611a5bad72517c60b89ebca0c2394f_label" value="Search Connection" style="edgeLabel;html=1;align=center;verticalAlign=middle;resizable=0;points=[];" vertex="1" connectable="0" parent="edge-search-result-9b611a5bad72517c60b89ebca0c2394f-to-session-wrapper-9b611a5bad72517c60b89ebca0c2394f">
                  <mxGeometry x="-0.2" y="10" relative="1" as="geometry">
                    <mxPoint as="offset"/>
                  </mxGeometry>
                </mxCell>
<mxCell id="edge-edge-search-to-terminal-9b611a5bad72517c60b89ebca0c2394f" style="edgeStyle=orthogonalEdgeStyle;rounded=1;orthogonalLoop=1;jettySize=auto;html=1;strokeColor=#808080;strokeWidth=2;jumpStyle=arc;jumpSize=10;spacing=15;labelBackgroundColor=white;labelBorderColor=none" edge="1" parent="1" source="search-result-9b611a5bad72517c60b89ebca0c2394f" target="terminal-9b611a5bad72517c60b89ebca0c2394f">
                  <mxGeometry relative="1" as="geometry"/>
                </mxCell>
                <mxCell id="edge-edge-search-to-terminal-9b611a5bad72517c60b89ebca0c2394f_label" value="Terminal Connection" style="edgeLabel;html=1;align=center;verticalAlign=middle;resizable=0;points=[];" vertex="1" connectable="0" parent="edge-edge-search-to-terminal-9b611a5bad72517c60b89ebca0c2394f">
                  <mxGeometry x="-0.2" y="10" relative="1" as="geometry">
                    <mxPoint as="offset"/>
                  </mxGeometry>
                </mxCell>
            </root>
          </mxGraphModel>
        </diagram>
      </mxfile>